{
	"asset":{
		"generator":"Khronos glTF Blender I/O v4.3.47",
		"version":"2.0"
	},
	"scene":0,
	"scenes":[
		{
			"name":"Scene",
			"nodes":[
				0
			]
		}
	],
	"nodes":[
		{
			"mesh":0,
			"name":"Boat"
		}
	],
	"materials":[
		{
			"doubleSided":true,
			"name":"Lowpoly Boat"
		}
	],
	"meshes":[
		{
			"name":"Cylinder",
			"primitives":[
				{
					"attributes":{
						"POSITION":0,
						"NORMAL":1,
						"TEXCOORD_0":2
					},
					"indices":3,
					"material":0
				}
			]
		}
	],
	"accessors":[
		{
			"bufferView":0,
			"componentType":5126,
			"count":32422,
			"max":[
				2.231140375137329,
				0.9289828538894653,
				3.607011318206787
			],
			"min":[
				-1.3394211530685425,
				-0.3299989104270935,
				-3.48245906829834
			],
			"type":"VEC3"
		},
		{
			"bufferView":1,
			"componentType":5126,
			"count":32422,
			"type":"VEC3"
		},
		{
			"bufferView":2,
			"componentType":5126,
			"count":32422,
			"type":"VEC2"
		},
		{
			"bufferView":3,
			"componentType":5123,
			"count":49104,
			"type":"SCALAR"
		}
	],
	"bufferViews":[
		{
			"buffer":0,
			"byteLength":389064,
			"byteOffset":0,
			"target":34962
		},
		{
			"buffer":0,
			"byteLength":389064,
			"byteOffset":389064,
			"target":34962
		},
		{
			"buffer":0,
			"byteLength":259376,
			"byteOffset":778128,
			"target":34962
		},
		{
			"buffer":0,
			"byteLength":98208,
			"byteOffset":1037504,
			"target":34963
		}
	],
	"buffers":[
		{
			"byteLength":1135712,
			"uri":"Boat.bin"
		}
	]
}
